<svg xmlns="http://www.w3.org/2000/svg" version="1.0" width="1080.000000pt" height="1080.000000pt" viewBox="-3 -3 1086 1086" preserveAspectRatio="xMidYMid meet"><g id="deeditor_bgCarrier" stroke-width="0">
    <rect id="dee_c_e" x="-3" y="-3" width="1086" height="1086" rx="0" fill="#ffffff" strokewidth="0"/>
  </g>

<g transform="translate(0.000000,1080.000000) scale(0.100000,-0.100000)" fill="#2c54b7" stroke="none">
<path d="M3315 6884 c-79 -13 -158 -39 -245 -81 -82 -39 -108 -59 -191 -142 -86 -86 -102 -108 -147 -201 -31 -64 -57 -135 -66 -182 -29 -144 -15 -329 35 -445 l19 -46 76 82 c71 76 166 152 224 178 62 28 191 50 223 37 25 -9 21 -26 -18 -71 -19 -23 -35 -43 -35 -46 0 -3 30 -12 68 -20 270 -60 483 -5 712 182 40 33 42 33 35 10 -17 -59 -74 -179 -110 -234 -117 -175 -298 -275 -505 -277 -92 -1 -137 10 -305 72 -168 63 -223 62 -250 -5 -21 -49 -19 -66 18 -106 89 -98 227 -182 362 -221 104 -29 296 -31 394 -4 416 114 661 527 557 938 -13 52 -36 118 -50 147 l-27 52 -43 -58 c-149 -199 -337 -283 -637 -283 -141 0 -306 -16 -375 -36 -74 -21 -140 -66 -215 -145 -36 -38 -71 -69 -77 -69 -20 0 -42 31 -42 62 0 35 63 175 111 245 84 123 216 210 354 232 42 7 169 11 315 9 211 -2 254 0 310 16 73 20 160 64 204 102 l29 25 -49 51 c-100 102 -228 177 -364 212 -65 17 -239 29 -295 20z" fill="#2c54b7"/>
<path d="M1750 6566 c0 -8 -2 -21 -5 -28 -4 -10 13 -22 55 -40 33 -15 63 -33 66 -42 6 -15 -151 -757 -166 -786 -5 -9 -30 -23 -58 -33 -67 -25 -92 -44 -92 -73 l0 -24 440 0 c242 0 440 2 440 4 0 2 18 83 40 181 22 98 40 180 40 182 0 2 -23 3 -52 1 l-52 -3 -43 -110 c-24 -60 -51 -116 -60 -122 -12 -9 -67 -13 -190 -13 -151 0 -173 2 -173 16 0 12 79 385 142 669 6 28 14 64 17 80 5 25 18 35 71 62 78 38 90 48 90 73 0 19 -8 20 -255 20 -213 0 -255 -2 -255 -14z" fill="#2c54b7"/>
<path d="M4375 6558 c-3 -13 -18 -81 -34 -151 l-28 -128 51 3 c48 3 52 5 66 38 8 19 26 58 40 85 l25 50 113 3 c96 2 112 0 112 -13 0 -14 -45 -227 -132 -620 -16 -77 -34 -147 -38 -155 -5 -8 -38 -26 -75 -40 -37 -14 -68 -27 -70 -30 -1 -3 -5 -17 -9 -32 l-6 -28 265 0 265 0 0 25 c0 14 -1 28 -1 33 -1 4 -28 18 -61 31 -33 13 -62 29 -64 36 -5 11 18 126 82 415 8 36 19 85 24 110 15 75 50 234 56 253 5 16 17 17 117 15 l112 -3 3 -87 3 -88 50 0 c31 0 51 5 53 13 2 6 17 74 33 150 l30 137 -488 0 -489 0 -5 -22z" fill="#2c54b7"/>
<path d="M5500 6566 c0 -8 -2 -20 -5 -28 -4 -9 16 -23 60 -42 51 -22 65 -33 65 -50 0 -12 -23 -125 -51 -251 -27 -127 -54 -248 -58 -270 -36 -175 -54 -252 -62 -261 -5 -7 -37 -22 -70 -34 -58 -22 -79 -42 -79 -74 0 -14 47 -16 440 -16 344 0 441 3 444 13 7 25 76 343 76 350 0 5 -23 7 -51 5 l-51 -3 -44 -110 c-24 -60 -52 -116 -61 -122 -12 -9 -67 -13 -191 -13 l-174 0 7 43 c4 23 18 89 31 147 13 58 46 211 74 340 28 129 54 243 57 254 3 11 35 32 79 52 64 29 74 37 74 59 l0 25 -255 0 c-213 0 -255 -2 -255 -14z" fill="#2c54b7"/>
<path d="M6546 6564 c-12 -32 -4 -42 59 -69 53 -22 65 -32 65 -50 0 -19 -38 -200 -126 -600 -44 -202 -33 -182 -119 -215 -71 -27 -71 -27 -79 -62 l-6 -28 260 0 260 0 11 27 c12 32 10 34 -64 63 -33 13 -61 28 -63 35 -3 6 6 63 20 126 14 63 50 231 81 374 31 143 60 269 64 281 6 14 34 31 78 49 70 28 83 38 83 68 0 16 -19 17 -259 17 -227 0 -260 -2 -265 -16z" fill="#2c54b7"/>
<path d="M7235 6558 c-3 -13 -16 -71 -30 -130 -35 -150 -35 -148 23 -148 l47 0 28 68 c50 118 41 112 167 112 122 0 118 3 100 -73 -5 -23 -41 -190 -80 -372 -39 -181 -74 -336 -78 -344 -4 -7 -39 -26 -77 -41 -64 -25 -82 -42 -84 -77 -1 -10 57 -13 259 -13 200 0 262 3 265 13 14 42 10 48 -55 76 l-65 27 2 40 c2 21 28 152 58 289 30 138 62 284 70 325 9 41 20 92 26 113 l10 38 112 -3 112 -3 3 -87 3 -88 49 0 c57 0 49 -15 88 168 l29 132 -488 0 -489 0 -5 -22z" fill="#2c54b7"/>
<path d="M8358 6551 c-4 -28 -1 -31 59 -56 43 -19 63 -33 63 -45 0 -17 -34 -182 -85 -415 -24 -109 -53 -242 -73 -335 -7 -30 -15 -38 -57 -58 -93 -41 -100 -47 -103 -75 l-3 -27 470 0 469 0 12 53 c6 28 20 94 31 146 11 52 22 98 25 103 3 4 -18 8 -46 8 l-51 0 -40 -85 c-22 -47 -48 -89 -59 -95 -28 -15 -420 -13 -420 2 0 7 17 88 37 180 l36 169 106 -3 106 -3 9 -67 8 -68 39 0 c44 0 35 -23 89 225 18 83 35 156 38 163 3 8 -9 12 -39 12 -44 0 -44 0 -80 -68 l-35 -67 -107 -3 -107 -3 7 33 c3 18 18 89 33 158 l27 125 174 3 c204 3 199 6 199 -100 l0 -68 50 0 c43 0 50 3 55 23 21 90 55 248 55 256 0 8 -138 11 -444 11 l-444 0 -4 -29z" fill="#2c54b7"/>
<path d="M3378 5035 c-146 -40 -251 -195 -251 -373 0 -59 5 -88 21 -119 26 -50 80 -96 131 -112 50 -14 143 -14 193 1 76 23 179 142 148 171 -10 9 -13 9 -17 0 -21 -58 -103 -131 -156 -140 -126 -20 -209 71 -194 215 20 186 118 331 225 332 85 0 136 -51 147 -151 9 -78 30 -79 45 -1 6 31 16 73 21 92 12 48 11 70 -4 70 -7 0 -18 -9 -25 -20 -16 -25 -34 -25 -57 0 -21 23 -104 50 -149 49 -17 0 -52 -7 -78 -14z" fill="#2c54b7"/>
<path d="M5816 5039 c-146 -34 -252 -144 -292 -301 -19 -71 -13 -122 20 -194 40 -86 109 -124 226 -124 195 0 344 133 373 333 9 62 8 81 -8 130 -39 124 -173 190 -319 156z m142 -42 c61 -29 77 -132 42 -268 -35 -142 -77 -215 -145 -255 -88 -51 -182 -20 -206 69 -25 95 33 317 105 399 59 68 136 89 204 55z" fill="#2c54b7"/>
<path d="M7314 5036 c-245 -62 -376 -372 -229 -543 49 -58 102 -76 207 -71 189 8 327 133 359 325 28 164 -65 285 -228 298 -32 2 -81 -1 -109 -9z m147 -37 c43 -17 64 -64 63 -144 -2 -168 -80 -340 -176 -391 -41 -21 -110 -18 -142 7 -60 47 -71 127 -36 264 28 108 61 176 109 223 59 57 110 68 182 41z" fill="#2c54b7"/>
<path d="M8120 5036 c-140 -39 -236 -141 -276 -289 -49 -183 50 -326 224 -327 67 0 117 16 168 55 35 27 38 26 48 -17 13 -54 32 -30 61 75 31 115 47 147 74 147 10 0 21 7 25 15 5 13 -13 15 -124 15 -109 0 -130 -2 -130 -15 0 -10 10 -15 30 -15 17 0 31 -6 31 -12 5 -56 -27 -143 -67 -184 -29 -29 -42 -34 -80 -34 -92 0 -134 56 -134 178 0 265 203 476 337 350 24 -22 53 -102 53 -145 0 -14 6 -23 15 -23 8 0 15 1 15 3 0 1 7 40 15 87 8 47 15 93 15 103 0 24 -27 21 -41 -4 l-11 -21 -23 22 c-26 25 -104 50 -149 49 -17 0 -51 -6 -76 -13z" fill="#2c54b7"/>
<path d="M1747 5013 c-3 -10 -19 -56 -36 -103 -36 -100 -34 -90 -17 -90 8 0 27 24 44 53 56 99 146 156 180 114 11 -13 9 -21 -87 -385 -16 -63 -35 -120 -41 -127 -6 -8 -30 -15 -53 -17 -22 -2 -42 -9 -45 -16 -3 -10 30 -12 159 -10 119 2 163 6 167 16 2 8 -9 12 -36 12 -63 0 -66 12 -33 131 16 57 45 167 66 244 20 77 42 146 47 153 16 19 72 14 102 -9 24 -19 26 -27 26 -90 0 -104 20 -90 51 36 l25 105 -257 0 c-236 0 -257 -1 -262 -17z" fill="#2c54b7"/>
<path d="M2437 5016 c-5 -11 4 -16 36 -18 63 -5 65 17 -44 -388 -39 -144 -42 -150 -79 -150 -20 0 -30 -5 -30 -15 0 -13 36 -15 260 -15 l259 0 27 88 c15 48 29 93 31 100 3 6 -2 12 -11 12 -8 0 -25 -18 -35 -39 -27 -53 -93 -107 -146 -120 -24 -6 -71 -11 -103 -11 -85 0 -90 10 -62 113 46 170 44 167 105 147 42 -14 55 -35 55 -89 0 -30 4 -41 15 -41 8 0 15 3 15 8 0 4 16 64 34 135 27 98 31 127 20 127 -7 0 -21 -14 -29 -30 -22 -42 -71 -70 -123 -70 -37 0 -43 3 -38 18 3 9 15 53 27 97 32 121 36 125 119 125 38 0 81 -5 95 -12 34 -15 55 -56 55 -108 0 -68 25 -50 43 33 9 39 20 82 23 95 l6 22 -260 0 c-217 0 -261 -2 -265 -14z" fill="#2c54b7"/>
<path d="M3916 5015 c-4 -11 2 -15 27 -15 63 0 64 -4 22 -162 -100 -381 -98 -375 -142 -380 -15 -2 -28 -9 -31 -16 -3 -10 27 -12 139 -10 103 2 144 6 147 16 2 8 -8 12 -31 12 -56 0 -58 13 -23 140 l32 115 122 3 c67 1 122 0 122 -3 0 -24 -54 -214 -66 -232 -9 -15 -24 -23 -43 -23 -16 0 -31 -6 -35 -15 -5 -13 15 -15 138 -15 119 0 145 3 150 15 4 11 -2 15 -28 15 -55 0 -57 13 -21 145 18 66 47 176 65 244 19 68 40 130 48 137 7 8 27 14 43 14 19 0 29 5 29 15 0 13 -23 15 -145 15 -122 0 -145 -2 -145 -15 0 -10 10 -15 28 -15 55 0 58 -9 33 -107 -37 -146 -22 -133 -161 -133 -66 0 -120 3 -120 7 0 30 56 211 68 221 9 6 28 12 44 12 18 0 28 5 28 15 0 13 -23 15 -144 15 -119 0 -145 -3 -150 -15z" fill="#2c54b7"/>
<path d="M4797 5023 c-15 -14 -6 -23 22 -23 53 0 57 -19 26 -133 -100 -369 -107 -385 -164 -401 -17 -5 -31 -15 -31 -23 0 -19 221 -15 228 5 2 6 -3 12 -11 12 -29 0 -67 40 -67 72 0 28 85 350 98 372 3 5 58 -100 123 -233 105 -214 121 -242 140 -239 24 3 23 3 105 343 39 167 59 211 100 221 13 3 24 12 24 20 0 21 -195 20 -204 -1 -4 -11 1 -15 18 -15 30 0 56 -30 56 -64 0 -26 -68 -317 -75 -325 -2 -2 -50 92 -106 208 l-102 211 -87 0 c-48 0 -90 -3 -93 -7z" fill="#2c54b7"/>
<path d="M6400 5015 c0 -10 10 -15 28 -15 64 -1 64 -8 5 -225 -90 -330 -83 -315 -135 -315 -18 0 -28 -5 -28 -15 0 -13 32 -15 252 -13 l252 3 28 95 c15 52 28 96 28 98 0 1 -6 2 -14 2 -8 0 -25 -19 -39 -42 -52 -89 -118 -128 -214 -128 -93 0 -92 0 -55 142 107 409 102 398 162 398 29 0 40 4 40 15 0 13 -24 15 -155 15 -131 0 -155 -2 -155 -15z" fill="#2c54b7"/>
<path d="M8676 5015 c-3 -10 1 -15 13 -15 27 0 33 -11 97 -165 l57 -140 -27 -105 c-15 -58 -32 -110 -38 -117 -5 -7 -26 -13 -45 -15 -20 -2 -38 -9 -41 -15 -3 -10 31 -13 147 -13 128 0 151 2 151 15 0 10 -10 15 -27 15 -50 0 -58 12 -43 67 40 155 54 190 95 243 23 30 68 90 100 134 36 48 69 82 86 88 15 5 30 16 33 24 4 12 -12 14 -94 14 -77 0 -100 -3 -100 -13 0 -8 11 -19 25 -25 15 -7 25 -20 25 -33 0 -17 -86 -146 -140 -212 -9 -10 -103 222 -96 238 3 8 19 15 37 17 18 2 34 9 37 16 6 20 -244 17 -252 -3z" fill="#2c54b7"/>
<path d="M7250 4006 c0 -132 2 -156 15 -156 12 0 15 14 15 65 l0 65 69 0 c59 0 74 4 98 24 36 31 39 95 5 128 -19 20 -35 23 -112 26 l-90 4 0 -156z m168 108 c14 -10 22 -26 22 -44 0 -41 -32 -60 -102 -60 l-58 0 0 60 0 60 58 0 c36 0 66 -6 80 -16z" fill="#2c54b7"/>
<path d="M8220 4005 l0 -155 95 0 c78 0 95 3 95 15 0 12 -15 15 -75 15 l-75 0 0 140 c0 133 -1 140 -20 140 -19 0 -20 -7 -20 -155z" fill="#2c54b7"/>
<path d="M8840 4105 l0 -55 -25 16 c-34 22 -90 11 -111 -22 -38 -57 -24 -157 25 -184 29 -15 72 -12 93 7 17 15 18 15 18 0 0 -10 7 -17 15 -17 13 0 15 24 15 155 0 131 -2 155 -15 155 -12 0 -15 -13 -15 -55z m-20 -70 c7 -9 15 -37 18 -63 3 -41 0 -53 -20 -77 -20 -23 -30 -27 -52 -21 -52 13 -70 111 -28 159 19 21 65 22 82 2z" fill="#2c54b7"/>
<path d="M7883 4139 c-7 -7 -13 -26 -13 -41 0 -18 -5 -28 -15 -28 -8 0 -15 -4 -15 -10 0 -5 7 -10 15 -10 12 0 15 -16 15 -88 0 -96 7 -112 52 -112 31 0 30 25 -3 33 -17 5 -19 15 -19 86 0 74 2 81 20 81 26 0 26 16 1 23 -14 3 -21 15 -23 42 -2 29 -5 34 -15 24z" fill="#2c54b7"/>
<path d="M8532 4138 c-7 -7 -12 -24 -12 -39 0 -15 -6 -30 -12 -33 -10 -5 -10 -7 0 -12 8 -4 12 -31 12 -85 0 -96 10 -119 50 -119 34 0 41 19 10 27 -18 5 -20 14 -20 89 0 68 3 84 15 84 8 0 15 5 15 10 0 6 -7 10 -15 10 -11 0 -15 11 -15 40 0 41 -7 49 -28 28z" fill="#2c54b7"/>
<path d="M7570 4066 c0 -4 16 -53 36 -111 31 -90 40 -105 58 -105 18 0 27 15 55 98 19 53 36 103 39 110 2 7 -4 12 -15 12 -15 0 -25 -19 -49 -92 l-30 -93 -31 90 c-20 60 -35 91 -46 93 -9 2 -17 1 -17 -2z" fill="#2c54b7"/>
</g>
</svg>